<?xml version="1.0" encoding="UTF-8"?>
<!DOCTYPE svg PUBLIC "-//W3C//DTD SVG 1.1//EN" "http://www.w3.org/Graphics/SVG/1.1/DTD/svg11.dtd">
<svg xmlns="http://www.w3.org/2000/svg" version="1.1" width="200px" height="200px" style="shape-rendering:geometricPrecision; text-rendering:geometricPrecision; image-rendering:optimizeQuality; fill-rule:evenodd; clip-rule:evenodd" xmlns:xlink="http://www.w3.org/1999/xlink">
<g><path style="opacity:1" fill="#fefefe" d="M 65.5,3.5 C 66.8221,3.33003 67.9887,3.66337 69,4.5C 71.5349,9.59613 74.5349,14.2628 78,18.5C 92.3333,13.1667 106.667,13.1667 121,18.5C 124.465,14.2628 127.465,9.59613 130,4.5C 131.88,3.07047 133.38,3.4038 134.5,5.5C 132.088,10.6587 129.421,15.6587 126.5,20.5C 142.589,30.2741 151.256,44.6074 152.5,63.5C 117.167,63.5 81.8333,63.5 46.5,63.5C 47.7407,44.6096 56.4074,30.2763 72.5,20.5C 69.5788,15.6587 66.9121,10.6587 64.5,5.5C 64.8627,4.81654 65.1961,4.14987 65.5,3.5 Z M 74.5,35.5 C 78.8394,36.9762 79.8394,39.4762 77.5,43C 70.9337,42.8051 69.9337,40.3051 74.5,35.5 Z M 123.5,35.5 C 128.692,38.3451 128.692,41.0118 123.5,43.5C 118.483,41.0897 118.483,38.423 123.5,35.5 Z"/></g>
<g><path style="opacity:1" fill="#fefefe" d="M 26.5,65.5 C 33.0183,64.1229 38.1849,66.1229 42,71.5C 42.6667,91.5 42.6667,111.5 42,131.5C 37.8149,138.339 31.9816,140.172 24.5,137C 21.8647,135.039 20.0314,132.539 19,129.5C 18.3333,111.167 18.3333,92.8333 19,74.5C 20.1133,70.2341 22.6133,67.2341 26.5,65.5 Z"/></g>
<g><path style="opacity:0.999" fill="#fefefe" d="M 163.5,65.5 C 168.121,64.9927 172.454,65.826 176.5,68C 178.317,69.7998 179.484,71.9664 180,74.5C 180.667,92.8333 180.667,111.167 180,129.5C 176.436,138.194 170.269,140.694 161.5,137C 158.246,134.658 156.412,131.491 156,127.5C 155.223,108.813 155.556,90.1462 157,71.5C 159.063,69.2659 161.229,67.2659 163.5,65.5 Z"/></g>
<g><path style="opacity:1" fill="#fefefe" d="M 46.5,67.5 C 81.8333,67.5 117.167,67.5 152.5,67.5C 152.667,94.1687 152.5,120.835 152,147.5C 147.788,155.965 140.955,158.965 131.5,156.5C 131.666,166.172 131.5,175.839 131,185.5C 127.436,194.194 121.269,196.694 112.5,193C 110.622,191.457 109.122,189.624 108,187.5C 106.574,177.246 106.074,166.912 106.5,156.5C 101.833,156.5 97.1667,156.5 92.5,156.5C 92.9262,166.912 92.4262,177.246 91,187.5C 86.8149,194.339 80.9816,196.172 73.5,193C 70.8647,191.039 69.0314,188.539 68,185.5C 67.5002,175.839 67.3335,166.172 67.5,156.5C 58.0449,158.965 51.2115,155.965 47,147.5C 46.5,120.835 46.3334,94.1687 46.5,67.5 Z"/></g>
</svg>
