<?xml version="1.0" encoding="UTF-8"?>
<!DOCTYPE svg PUBLIC "-//W3C//DTD SVG 1.1//EN" "http://www.w3.org/Graphics/SVG/1.1/DTD/svg11.dtd">
<svg xmlns="http://www.w3.org/2000/svg" version="1.1" width="200px" height="200px" style="shape-rendering:geometricPrecision; text-rendering:geometricPrecision; image-rendering:optimizeQuality; fill-rule:evenodd; clip-rule:evenodd" xmlns:xlink="http://www.w3.org/1999/xlink">
<g><path style="opacity:0.999" fill="#fefefe" d="M 132.5,1.5 C 134.833,1.5 137.167,1.5 139.5,1.5C 139.754,27.0572 127.587,42.7239 103,48.5C 98.2484,49.247 96.4151,47.247 97.5,42.5C 100.227,21.1124 111.894,7.44569 132.5,1.5 Z"/></g>
<g><path style="opacity:1" fill="#fefefe" d="M 67.5,48.5 C 71.1879,48.7811 74.8546,49.2811 78.5,50C 85.7107,52.6824 93.0441,54.8491 100.5,56.5C 109.247,54.2943 117.913,51.7943 126.5,49C 146.075,45.8809 161.908,52.0476 174,67.5C 174.667,68.1667 174.667,68.8333 174,69.5C 152.806,85.7835 148.473,105.783 161,129.5C 165.435,134.774 170.602,139.107 176.5,142.5C 177.553,143.438 178.22,144.605 178.5,146C 172.565,164.916 162.232,180.916 147.5,194C 146.167,194.667 144.833,195.333 143.5,196C 137.5,196.667 131.5,196.667 125.5,196C 120.5,194.333 115.5,192.667 110.5,191C 105.5,190.333 100.5,190.333 95.5,191C 88.9591,193.402 82.2924,195.402 75.5,197C 64.513,198.259 55.6796,194.426 49,185.5C 25.387,157.723 16.0537,125.723 21,89.5C 27.4302,65.2205 42.9302,51.5538 67.5,48.5 Z"/></g>
</svg>
