<?xml version="1.0" encoding="UTF-8"?>
<!DOCTYPE svg PUBLIC "-//W3C//DTD SVG 1.1//EN" "http://www.w3.org/Graphics/SVG/1.1/DTD/svg11.dtd">
<svg xmlns="http://www.w3.org/2000/svg" version="1.1" width="200px" height="200px" style="shape-rendering:geometricPrecision; text-rendering:geometricPrecision; image-rendering:optimizeQuality; fill-rule:evenodd; clip-rule:evenodd" xmlns:xlink="http://www.w3.org/1999/xlink">
<g><path style="opacity:0.938" fill="#050507" d="M 162.5,140.5 C 161.833,140.5 161.167,140.5 160.5,140.5C 160.5,141.167 160.5,141.833 160.5,142.5C 159.167,144.5 157.833,146.5 156.5,148.5C 152.584,151.194 148.251,152.36 143.5,152C 139.019,149.939 137.352,146.439 138.5,141.5C 138.5,140.167 137.833,139.5 136.5,139.5C 138.384,127.95 137.717,116.617 134.5,105.5C 132.443,100.39 129.609,95.7231 126,91.5C 125.584,87.4711 124.417,83.8044 122.5,80.5C 121.389,76.2769 119.722,72.2769 117.5,68.5C 116.695,66.0846 115.695,63.7513 114.5,61.5C 115.775,58.3962 115.775,55.3962 114.5,52.5C 114.158,51.6618 113.492,51.3284 112.5,51.5C 115.161,47.6492 116.161,43.3159 115.5,38.5C 113.405,30.9547 108.739,28.4547 101.5,31C 99.8588,32.129 98.8588,33.629 98.5,35.5C 97.3,38.6977 97.3,42.031 98.5,45.5C 95.1667,44.1667 91.8333,44.1667 88.5,45.5C 88.1667,45.5 87.8333,45.5 87.5,45.5C 89.8845,42.2795 89.8845,38.9462 87.5,35.5C 85.562,31.8308 82.562,30.6641 78.5,32C 76.393,33.2635 75.393,35.0968 75.5,37.5C 74.8665,42.8915 75.8665,47.8915 78.5,52.5C 75.0324,55.5084 74.6991,58.8417 77.5,62.5C 77.5,65.5 77.5,68.5 77.5,71.5C 74.0929,76.6406 70.9263,81.9739 68,87.5C 67.6667,90.5 67.3333,93.5 67,96.5C 60.3581,105.785 56.5248,116.119 55.5,127.5C 54.6862,129.631 54.1862,131.964 54,134.5C 52.9563,133.377 52.2896,132.044 52,130.5C 50.0369,118.019 53.2035,107.019 61.5,97.5C 61.3333,97.1667 61.1667,96.8333 61,96.5C 57.5994,99.6353 54.9327,103.302 53,107.5C 50.5195,114.572 48.6862,121.739 47.5,129C 50.08,130.919 51.9133,133.419 53,136.5C 53.8159,137.823 54.9826,138.489 56.5,138.5C 63.1682,144.332 70.0016,149.999 77,155.5C 80.5438,162.69 78.3771,166.023 70.5,165.5C 69.9744,163.77 68.9744,162.436 67.5,161.5C 63.8598,154.225 59.6931,147.225 55,140.5C 53.6288,138.959 52.1288,137.625 50.5,136.5C 49.376,135.191 47.876,134.525 46,134.5C 43.4582,135.205 41.2916,136.539 39.5,138.5C 38.6239,135.201 38.4572,131.868 39,128.5C 44.827,117.696 49.4936,106.363 53,94.5C 58.7549,85.9901 64.7549,77.6568 71,69.5C 71.6835,57.6556 71.5169,45.8222 70.5,34C 69.6284,20.887 74.6284,10.887 85.5,4C 108.227,-2.05496 123.06,6.11171 130,28.5C 130.372,37.8553 131.038,47.1887 132,56.5C 135.139,64.1122 138.806,71.4455 143,78.5C 160.649,95.79 167.149,116.457 162.5,140.5 Z"/></g>
<g><path style="opacity:1" fill="#505051" d="M 108.5,10.5 C 112.46,11.1268 114.794,13.4601 115.5,17.5C 113.263,18.449 110.929,19.1156 108.5,19.5C 108.5,16.5 108.5,13.5 108.5,10.5 Z"/></g>
<g><path style="opacity:1" fill="#aaaaaa" d="M 115.5,38.5 C 113.391,37.6091 111.391,36.4424 109.5,35C 105.779,34.3219 102.112,34.4886 98.5,35.5C 98.8588,33.629 99.8588,32.129 101.5,31C 108.739,28.4547 113.405,30.9547 115.5,38.5 Z"/></g>
<g><path style="opacity:1" fill="#8f8f8e" d="M 87.5,35.5 C 86.0328,35.1062 84.5328,34.7728 83,34.5C 80.2915,35.1086 77.7915,36.1086 75.5,37.5C 75.393,35.0968 76.393,33.2635 78.5,32C 82.562,30.6641 85.562,31.8308 87.5,35.5 Z"/></g>
<g><path style="opacity:1" fill="#e4e4e2" d="M 87.5,35.5 C 89.8845,38.9462 89.8845,42.2795 87.5,45.5C 87.1583,46.3382 86.4916,46.6716 85.5,46.5C 86.1252,43.0295 85.1252,40.1962 82.5,38C 81.365,37.2506 80.365,37.4173 79.5,38.5C 77.9059,42.6042 78.5726,46.2708 81.5,49.5C 80.8333,50.8333 79.8333,51.8333 78.5,52.5C 75.8665,47.8915 74.8665,42.8915 75.5,37.5C 77.7915,36.1086 80.2915,35.1086 83,34.5C 84.5328,34.7728 86.0328,35.1062 87.5,35.5 Z"/></g>
<g><path style="opacity:1" fill="#ebeae7" d="M 115.5,38.5 C 116.161,43.3159 115.161,47.6492 112.5,51.5C 110.447,51.5979 108.78,50.9313 107.5,49.5C 112.37,46.1028 112.703,42.2695 108.5,38C 103.967,36.5292 101.633,38.1958 101.5,43C 101.773,44.5328 102.106,46.0328 102.5,47.5C 100.938,47.2671 99.6049,46.6005 98.5,45.5C 97.3,42.031 97.3,38.6977 98.5,35.5C 102.112,34.4886 105.779,34.3219 109.5,35C 111.391,36.4424 113.391,37.6091 115.5,38.5 Z"/></g>
<g><path style="opacity:1" fill="#161617" d="M 107.5,49.5 C 105.716,49.1075 104.05,48.4408 102.5,47.5C 102.106,46.0328 101.773,44.5328 101.5,43C 101.633,38.1958 103.967,36.5292 108.5,38C 112.703,42.2695 112.37,46.1028 107.5,49.5 Z"/></g>
<g><path style="opacity:1" fill="#171616" d="M 85.5,46.5 C 84.1667,47.5 82.8333,48.5 81.5,49.5C 78.5726,46.2708 77.9059,42.6042 79.5,38.5C 80.365,37.4173 81.365,37.2506 82.5,38C 85.1252,40.1962 86.1252,43.0295 85.5,46.5 Z"/></g>
<g><path style="opacity:1" fill="#dca60d" d="M 87.5,45.5 C 87.8333,45.5 88.1667,45.5 88.5,45.5C 85.9003,51.4791 84.9003,57.8125 85.5,64.5C 78.5072,63.1733 76.1738,59.1733 78.5,52.5C 79.8333,51.8333 80.8333,50.8333 81.5,49.5C 82.8333,48.5 84.1667,47.5 85.5,46.5C 86.4916,46.6716 87.1583,46.3382 87.5,45.5 Z"/></g>
<g><path style="opacity:1" fill="#cf960d" d="M 114.5,52.5 C 115.775,55.3962 115.775,58.3962 114.5,61.5C 110.673,63.246 107.007,65.246 103.5,67.5C 98.1946,68.4419 92.8613,68.6086 87.5,68C 87.0426,67.586 86.7093,67.086 86.5,66.5C 96.5013,66.3268 104.835,62.6601 111.5,55.5C 112.5,55.5 113.5,55.5 114.5,55.5C 114.5,54.5 114.5,53.5 114.5,52.5 Z"/></g>
<g><path style="opacity:1" fill="#efce25" d="M 98.5,45.5 C 99.6049,46.6005 100.938,47.2671 102.5,47.5C 104.05,48.4408 105.716,49.1075 107.5,49.5C 108.78,50.9313 110.447,51.5979 112.5,51.5C 113.492,51.3284 114.158,51.6618 114.5,52.5C 114.5,53.5 114.5,54.5 114.5,55.5C 113.5,55.5 112.5,55.5 111.5,55.5C 110.448,55.3505 109.448,55.5172 108.5,56C 102.169,62.2788 94.5025,65.1121 85.5,64.5C 84.9003,57.8125 85.9003,51.4791 88.5,45.5C 91.8333,44.1667 95.1667,44.1667 98.5,45.5 Z"/></g>
<g><path style="opacity:1" fill="#a5760b" d="M 78.5,52.5 C 76.1738,59.1733 78.5072,63.1733 85.5,64.5C 94.5025,65.1121 102.169,62.2788 108.5,56C 109.448,55.5172 110.448,55.3505 111.5,55.5C 104.835,62.6601 96.5013,66.3268 86.5,66.5C 86.7093,67.086 87.0426,67.586 87.5,68C 92.8613,68.6086 98.1946,68.4419 103.5,67.5C 98.8446,71.2114 93.5113,72.3781 87.5,71C 84.2565,67.9501 80.9232,65.1168 77.5,62.5C 74.6991,58.8417 75.0324,55.5084 78.5,52.5 Z"/></g>
<g><path style="opacity:1" fill="#69696a" d="M 121.5,60.5 C 127.874,60.3526 130.207,63.1859 128.5,69C 123.608,68.5875 121.274,65.7541 121.5,60.5 Z"/></g>
<g><path style="opacity:1" fill="#fafaf7" d="M 117.5,68.5 C 119.722,72.2769 121.389,76.2769 122.5,80.5C 122.221,83.1178 121.554,85.6178 120.5,88C 115.893,89.6048 111.226,91.1048 106.5,92.5C 107.09,93.7989 108.09,94.6322 109.5,95C 117.083,95.5634 123.416,98.5634 128.5,104C 130.636,105.179 132.636,105.679 134.5,105.5C 137.717,116.617 138.384,127.95 136.5,139.5C 135.033,139.106 133.533,138.773 132,138.5C 130.301,138.387 129.134,139.053 128.5,140.5C 127.833,140.5 127.5,140.833 127.5,141.5C 126.532,143.607 126.198,145.941 126.5,148.5C 124.61,148.297 123.11,148.963 122,150.5C 121.609,155.854 121.109,161.188 120.5,166.5C 108.498,178.283 94.4982,181.283 78.5,175.5C 78.5,174.833 78.1667,174.5 77.5,174.5C 76.7281,173.306 75.7281,172.306 74.5,171.5C 73.9744,169.77 72.9744,168.436 71.5,167.5C 71.1667,166.833 70.8333,166.167 70.5,165.5C 78.3771,166.023 80.5438,162.69 77,155.5C 70.0016,149.999 63.1682,144.332 56.5,138.5C 55.5773,134.936 55.244,131.269 55.5,127.5C 56.5248,116.119 60.3581,105.785 67,96.5C 67.3333,93.5 67.6667,90.5 68,87.5C 70.9263,81.9739 74.0929,76.6406 77.5,71.5C 78.552,71.3505 79.552,71.5172 80.5,72C 82.7672,75.9389 85.9339,78.7723 90,80.5C 92.9922,79.755 95.8256,78.5883 98.5,77C 102.81,74.8415 106.81,72.1749 110.5,69C 112.81,68.5034 115.143,68.3367 117.5,68.5 Z"/></g>
<g><path style="opacity:1" fill="#bbbbb9" d="M 114.5,61.5 C 115.695,63.7513 116.695,66.0846 117.5,68.5C 115.143,68.3367 112.81,68.5034 110.5,69C 106.81,72.1749 102.81,74.8415 98.5,77C 95.8256,78.5883 92.9922,79.755 90,80.5C 85.9339,78.7723 82.7672,75.9389 80.5,72C 79.552,71.5172 78.552,71.3505 77.5,71.5C 77.5,68.5 77.5,65.5 77.5,62.5C 80.9232,65.1168 84.2565,67.9501 87.5,71C 93.5113,72.3781 98.8446,71.2114 103.5,67.5C 107.007,65.246 110.673,63.246 114.5,61.5 Z"/></g>
<g><path style="opacity:1" fill="#e1e1df" d="M 122.5,80.5 C 124.417,83.8044 125.584,87.4711 126,91.5C 129.609,95.7231 132.443,100.39 134.5,105.5C 132.636,105.679 130.636,105.179 128.5,104C 123.416,98.5634 117.083,95.5634 109.5,95C 108.09,94.6322 107.09,93.7989 106.5,92.5C 111.226,91.1048 115.893,89.6048 120.5,88C 121.554,85.6178 122.221,83.1178 122.5,80.5 Z"/></g>
<g><path style="opacity:1" fill="#404041" d="M 55.5,127.5 C 55.244,131.269 55.5773,134.936 56.5,138.5C 54.9826,138.489 53.8159,137.823 53,136.5C 51.9133,133.419 50.08,130.919 47.5,129C 48.6862,121.739 50.5195,114.572 53,107.5C 54.9327,103.302 57.5994,99.6353 61,96.5C 61.1667,96.8333 61.3333,97.1667 61.5,97.5C 53.2035,107.019 50.0369,118.019 52,130.5C 52.2896,132.044 52.9563,133.377 54,134.5C 54.1862,131.964 54.6862,129.631 55.5,127.5 Z"/></g>
<g><path style="opacity:1" fill="#f4bc0b" d="M 67.5,161.5 C 69.5693,166.811 70.9026,172.311 71.5,178C 71.3333,179.833 71.1667,181.667 71,183.5C 63.5871,189.002 56.4204,188.836 49.5,183C 40.6835,181.652 32.0168,179.819 23.5,177.5C 25.0529,169.686 25.8862,161.686 26,153.5C 26.5,153 27,152.5 27.5,152C 31.9508,151.87 36.2841,151.204 40.5,150C 42.8628,145.893 45.0295,141.726 47,137.5C 51.0364,143.486 55.703,148.82 61,153.5C 62.5862,155.67 63.9196,158.004 65,160.5C 65.6708,161.252 66.5041,161.586 67.5,161.5 Z"/></g>
<g><path style="opacity:1" fill="#3b3b3c" d="M 160.5,140.5 C 159.18,141.942 157.514,142.608 155.5,142.5C 155.128,137.137 152.128,134.47 146.5,134.5C 144.407,134.486 142.574,135.152 141,136.5C 140.667,134.066 141.834,133.066 144.5,133.5C 146.144,127.588 147.477,121.588 148.5,115.5C 147.741,108.481 144.741,102.648 139.5,98C 145.004,100.194 148.504,104.36 150,110.5C 150.667,114.167 150.667,117.833 150,121.5C 148.964,124.971 148.131,128.471 147.5,132C 151.509,133.122 155.509,134.455 159.5,136C 160.38,137.356 160.714,138.856 160.5,140.5 Z"/></g>
<g><path style="opacity:1" fill="#e6ae19" d="M 136.5,139.5 C 137.833,139.5 138.5,140.167 138.5,141.5C 136.57,146.563 137.57,151.063 141.5,155C 142.667,155.167 143.833,155.333 145,155.5C 148.516,154.053 152.016,152.719 155.5,151.5C 151.982,163.302 145.149,165.635 135,158.5C 133.76,165.525 133.594,172.525 134.5,179.5C 137.446,180.655 140.446,180.821 143.5,180C 148.731,177.769 153.731,175.103 158.5,172C 162.739,170.587 167.072,169.587 171.5,169C 173.797,167.737 174.63,165.903 174,163.5C 166.546,158.751 163.212,152.084 164,143.5C 163.047,141.627 161.88,141.294 160.5,142.5C 160.5,141.833 160.5,141.167 160.5,140.5C 161.167,140.5 161.833,140.5 162.5,140.5C 163.794,141.29 164.961,142.29 166,143.5C 166.297,146.914 166.964,150.247 168,153.5C 171.396,157.065 174.896,160.398 178.5,163.5C 178.528,167.155 176.861,169.822 173.5,171.5C 170.49,172.269 167.49,173.103 164.5,174C 157.592,178.189 150.592,182.189 143.5,186C 138.01,187.504 133.343,186.337 129.5,182.5C 129.799,168.451 129.465,154.451 128.5,140.5C 129.134,139.053 130.301,138.387 132,138.5C 133.533,138.773 135.033,139.106 136.5,139.5 Z"/></g>
<g><path style="opacity:0.984" fill="#c68f05" d="M 50.5,136.5 C 48.4727,136.338 46.4727,136.505 44.5,137C 43.55,141.233 41.55,144.9 38.5,148C 34.1667,148.333 29.8333,148.667 25.5,149C 24.6667,149.833 23.8333,150.667 23,151.5C 22.5175,156.249 23.0175,160.916 24.5,165.5C 23.6856,168.297 23.0189,171.13 22.5,174C 22.5143,175.385 22.8476,176.551 23.5,177.5C 27.4198,179.665 31.4198,181.832 35.5,184C 39.8721,184.421 44.2054,185.088 48.5,186C 50.0664,186.608 51.3998,187.442 52.5,188.5C 42.9614,187.614 33.6281,185.781 24.5,183C 20.0186,180.939 18.3519,177.439 19.5,172.5C 20.0896,164.861 20.2563,157.195 20,149.5C 21.1667,148.333 22.3333,147.167 23.5,146C 27.5548,145.768 31.5548,145.268 35.5,144.5C 37.2516,142.754 38.5849,140.754 39.5,138.5C 41.2916,136.539 43.4582,135.205 46,134.5C 47.876,134.525 49.376,135.191 50.5,136.5 Z"/></g>
<g><path style="opacity:1" fill="#e4ad09" d="M 50.5,136.5 C 52.1288,137.625 53.6288,138.959 55,140.5C 59.6931,147.225 63.8598,154.225 67.5,161.5C 66.5041,161.586 65.6708,161.252 65,160.5C 63.9196,158.004 62.5862,155.67 61,153.5C 55.703,148.82 51.0364,143.486 47,137.5C 45.0295,141.726 42.8628,145.893 40.5,150C 36.2841,151.204 31.9508,151.87 27.5,152C 27,152.5 26.5,153 26,153.5C 25.8862,161.686 25.0529,169.686 23.5,177.5C 22.8476,176.551 22.5143,175.385 22.5,174C 23.0189,171.13 23.6856,168.297 24.5,165.5C 23.0175,160.916 22.5175,156.249 23,151.5C 23.8333,150.667 24.6667,149.833 25.5,149C 29.8333,148.667 34.1667,148.333 38.5,148C 41.55,144.9 43.55,141.233 44.5,137C 46.4727,136.505 48.4727,136.338 50.5,136.5 Z"/></g>
<g><path style="opacity:1" fill="#f3be1f" d="M 155.5,151.5 C 155.557,150.391 155.89,149.391 156.5,148.5C 157.833,146.5 159.167,144.5 160.5,142.5C 161.88,141.294 163.047,141.627 164,143.5C 163.212,152.084 166.546,158.751 174,163.5C 174.63,165.903 173.797,167.737 171.5,169C 167.072,169.587 162.739,170.587 158.5,172C 153.731,175.103 148.731,177.769 143.5,180C 140.446,180.821 137.446,180.655 134.5,179.5C 133.594,172.525 133.76,165.525 135,158.5C 145.149,165.635 151.982,163.302 155.5,151.5 Z"/></g>
<g><path style="opacity:1" fill="#b17c0f" d="M 138.5,141.5 C 137.352,146.439 139.019,149.939 143.5,152C 148.251,152.36 152.584,151.194 156.5,148.5C 155.89,149.391 155.557,150.391 155.5,151.5C 152.016,152.719 148.516,154.053 145,155.5C 143.833,155.333 142.667,155.167 141.5,155C 137.57,151.063 136.57,146.563 138.5,141.5 Z"/></g>
<g><path style="opacity:1" fill="#d3d2cf" d="M 127.5,141.5 C 127.5,147.833 127.5,154.167 127.5,160.5C 126.833,160.5 126.5,160.833 126.5,161.5C 124.5,163.167 122.5,164.833 120.5,166.5C 121.109,161.188 121.609,155.854 122,150.5C 123.11,148.963 124.61,148.297 126.5,148.5C 126.198,145.941 126.532,143.607 127.5,141.5 Z"/></g>
<g><path style="opacity:0.946" fill="#040305" d="M 126.5,161.5 C 125.552,168.136 124.885,174.803 124.5,181.5C 123.449,184.344 123.449,187.344 124.5,190.5C 109.698,186.591 94.6985,185.591 79.5,187.5C 79.693,183.434 79.3597,179.434 78.5,175.5C 94.4982,181.283 108.498,178.283 120.5,166.5C 122.5,164.833 124.5,163.167 126.5,161.5 Z"/></g>
<g><path style="opacity:1" fill="#c0870c" d="M 178.5,163.5 C 181.495,165.143 182.161,167.477 180.5,170.5C 173.427,172.581 166.427,175.081 159.5,178C 154.344,181.003 149.344,184.17 144.5,187.5C 140.878,188.659 137.211,188.825 133.5,188C 131.536,186.549 130.203,184.716 129.5,182.5C 133.343,186.337 138.01,187.504 143.5,186C 150.592,182.189 157.592,178.189 164.5,174C 167.49,173.103 170.49,172.269 173.5,171.5C 176.861,169.822 178.528,167.155 178.5,163.5 Z"/></g>
<g><path style="opacity:1" fill="#a77308" d="M 128.5,140.5 C 129.465,154.451 129.799,168.451 129.5,182.5C 130.203,184.716 131.536,186.549 133.5,188C 137.211,188.825 140.878,188.659 144.5,187.5C 149.344,184.17 154.344,181.003 159.5,178C 166.427,175.081 173.427,172.581 180.5,170.5C 177.076,174.72 172.743,177.72 167.5,179.5C 167.265,178.903 166.765,178.57 166,178.5C 162.817,179.699 159.65,180.865 156.5,182C 150.427,189.105 142.761,191.772 133.5,190C 130.538,187.713 128.371,184.88 127,181.5C 126.998,174.513 127.165,167.513 127.5,160.5C 127.5,154.167 127.5,147.833 127.5,141.5C 127.5,140.833 127.833,140.5 128.5,140.5 Z"/></g>
<g><path style="opacity:1" fill="#daa005" d="M 67.5,161.5 C 68.9744,162.436 69.9744,163.77 70.5,165.5C 70.8333,166.167 71.1667,166.833 71.5,167.5C 74.1715,172.871 75.0049,178.538 74,184.5C 71.7934,189.519 67.96,191.853 62.5,191.5C 58.7345,191.6 55.4012,190.6 52.5,188.5C 51.3998,187.442 50.0664,186.608 48.5,186C 44.2054,185.088 39.8721,184.421 35.5,184C 31.4198,181.832 27.4198,179.665 23.5,177.5C 32.0168,179.819 40.6835,181.652 49.5,183C 56.4204,188.836 63.5871,189.002 71,183.5C 71.1667,181.667 71.3333,179.833 71.5,178C 70.9026,172.311 69.5693,166.811 67.5,161.5 Z"/></g>
<g><path style="opacity:1" fill="#754f06" d="M 127.5,160.5 C 127.165,167.513 126.998,174.513 127,181.5C 128.371,184.88 130.538,187.713 133.5,190C 142.761,191.772 150.427,189.105 156.5,182C 159.65,180.865 162.817,179.699 166,178.5C 166.765,178.57 167.265,178.903 167.5,179.5C 160.474,183.35 154.141,188.184 148.5,194C 145.929,195.454 143.262,196.62 140.5,197.5C 140.611,196.883 140.944,196.383 141.5,196C 131.606,195.929 125.939,191.096 124.5,181.5C 124.885,174.803 125.552,168.136 126.5,161.5C 126.5,160.833 126.833,160.5 127.5,160.5 Z"/></g>
<g><path style="opacity:1" fill="#725004" d="M 74.5,171.5 C 75.7281,172.306 76.7281,173.306 77.5,174.5C 81.3585,187.443 76.6918,194.61 63.5,196C 64.4158,196.278 65.0825,196.778 65.5,197.5C 59.4379,195.702 53.4379,193.702 47.5,191.5C 48.2739,190.853 49.2739,190.52 50.5,190.5C 56.8795,193.288 63.5462,194.121 70.5,193C 75.1474,190.425 77.1474,186.425 76.5,181C 76.5774,177.642 75.9107,174.475 74.5,171.5 Z"/></g>
<g><path style="opacity:1" fill="#9d6e04" d="M 71.5,167.5 C 72.9744,168.436 73.9744,169.77 74.5,171.5C 75.9107,174.475 76.5774,177.642 76.5,181C 77.1474,186.425 75.1474,190.425 70.5,193C 63.5462,194.121 56.8795,193.288 50.5,190.5C 49.2739,190.52 48.2739,190.853 47.5,191.5C 38.0165,189.629 28.6831,187.129 19.5,184C 15.6878,180.203 15.6878,176.37 19.5,172.5C 18.3519,177.439 20.0186,180.939 24.5,183C 33.6281,185.781 42.9614,187.614 52.5,188.5C 55.4012,190.6 58.7345,191.6 62.5,191.5C 67.96,191.853 71.7934,189.519 74,184.5C 75.0049,178.538 74.1715,172.871 71.5,167.5 Z"/></g>
<g><path style="opacity:0.741" fill="#4a3206" d="M 124.5,181.5 C 125.939,191.096 131.606,195.929 141.5,196C 140.944,196.383 140.611,196.883 140.5,197.5C 133.597,198.375 128.264,196.042 124.5,190.5C 123.449,187.344 123.449,184.344 124.5,181.5 Z"/></g>
<g><path style="opacity:0.596" fill="#563b04" d="M 77.5,174.5 C 78.1667,174.5 78.5,174.833 78.5,175.5C 79.3597,179.434 79.693,183.434 79.5,187.5C 77.3383,194.254 72.6716,197.588 65.5,197.5C 65.0825,196.778 64.4158,196.278 63.5,196C 76.6918,194.61 81.3585,187.443 77.5,174.5 Z"/></g>
</svg>
