<?xml version="1.0" encoding="UTF-8"?>
<!DOCTYPE svg PUBLIC "-//W3C//DTD SVG 1.1//EN" "http://www.w3.org/Graphics/SVG/1.1/DTD/svg11.dtd">
<svg xmlns="http://www.w3.org/2000/svg" version="1.1" width="200px" height="200px" style="shape-rendering:geometricPrecision; text-rendering:geometricPrecision; image-rendering:optimizeQuality; fill-rule:evenodd; clip-rule:evenodd" xmlns:xlink="http://www.w3.org/1999/xlink">
<g><path style="opacity:0.984" fill="#fefefe" d="M 90.5,-0.5 C 96.8333,-0.5 103.167,-0.5 109.5,-0.5C 159.361,7.36112 189.361,36.0278 199.5,85.5C 199.5,94.8333 199.5,104.167 199.5,113.5C 189.003,164.004 158.336,192.671 107.5,199.5C 102.5,199.5 97.5,199.5 92.5,199.5C 38.5051,191.505 7.50511,160.505 -0.5,106.5C -0.5,101.833 -0.5,97.1667 -0.5,92.5C 7.25308,39.4135 37.5864,8.41352 90.5,-0.5 Z"/></g>
<g><path style="opacity:1" fill="#585858" d="M 63.5,50.5 C 64.8333,50.5 66.1667,50.5 67.5,50.5C 67.3287,53.7973 67.9954,54.1306 69.5,51.5C 73.2213,49.7575 76.3879,50.4241 79,53.5C 83.0753,49.5899 87.0753,49.5899 91,53.5C 91.4994,59.1569 91.6661,64.8236 91.5,70.5C 90.5,70.5 89.5,70.5 88.5,70.5C 88.6659,65.4889 88.4993,60.4889 88,55.5C 84.8442,52.6012 82.1775,52.9345 80,56.5C 79.5008,61.1548 79.3342,65.8215 79.5,70.5C 78.1667,70.5 76.8333,70.5 75.5,70.5C 75.666,65.1563 75.4994,59.8229 75,54.5C 72.4082,53.0183 70.0749,53.3517 68,55.5C 67.5007,60.4889 67.3341,65.4889 67.5,70.5C 66.1667,70.5 64.8333,70.5 63.5,70.5C 63.5,63.8333 63.5,57.1667 63.5,50.5 Z"/></g>
<g><path style="opacity:1" fill="#575757" d="M 101.5,50.5 C 105.839,49.8461 109.673,50.8461 113,53.5C 113.499,59.1569 113.666,64.8236 113.5,70.5C 112.5,70.5 111.5,70.5 110.5,70.5C 110.719,69.325 110.386,68.325 109.5,67.5C 106.722,70.307 103.389,71.1404 99.5,70C 95.1596,66.0662 95.4929,62.7329 100.5,60C 103.482,59.502 106.482,59.3354 109.5,59.5C 110.247,53.9334 107.913,52.1 102.5,54C 101.296,56.2771 99.6297,56.7771 97.5,55.5C 98.5076,53.5008 99.841,51.8342 101.5,50.5 Z"/></g>
<g><path style="opacity:1" fill="#5a5a5a" d="M 123.5,50.5 C 129.537,49.1008 133.871,51.1008 136.5,56.5C 135.833,56.8333 135.167,57.1667 134.5,57.5C 130.978,52.7572 127.145,52.4239 123,56.5C 122.183,59.9643 122.517,63.2976 124,66.5C 126.064,67.5914 128.231,67.7581 130.5,67C 131.653,65.117 133.319,64.2837 135.5,64.5C 135.548,67.2919 134.215,69.1253 131.5,70C 120.352,71.5074 116.185,66.6741 119,55.5C 120.366,53.6383 121.866,51.9717 123.5,50.5 Z"/></g>
<g><path style="opacity:1" fill="#f4f4f4" d="M 102.5,61.5 C 104.833,61.5 107.167,61.5 109.5,61.5C 109.217,67.2632 106.384,68.9298 101,66.5C 100.387,64.5048 100.887,62.8381 102.5,61.5 Z"/></g>
<g><path style="opacity:1" fill="#545454" d="M 65.5,83.5 C 88.2484,82.1924 100.248,92.859 101.5,115.5C 100.298,139.208 87.9647,149.708 64.5,147C 49.314,141.156 42.314,129.989 43.5,113.5C 44.0397,98.3887 51.373,88.3887 65.5,83.5 Z"/></g>
<g><path style="opacity:1" fill="#535353" d="M 126.5,83.5 C 136.154,82.6605 144.321,85.6605 151,92.5C 152.908,95.2065 153.741,98.2065 153.5,101.5C 150.753,101.813 148.086,101.48 145.5,100.5C 144.268,95.7676 141.268,92.9343 136.5,92C 131.232,90.932 126.232,91.5987 121.5,94C 117.577,98.406 117.577,102.739 121.5,107C 129.273,110.278 137.273,112.945 145.5,115C 154.902,120.704 157.069,128.538 152,138.5C 148.493,143.506 143.66,146.34 137.5,147C 127.292,149.075 118.458,146.575 111,139.5C 109.377,136.673 108.21,133.673 107.5,130.5C 110.428,129.516 113.428,129.183 116.5,129.5C 117.688,135.52 121.355,139.02 127.5,140C 134.745,141.366 140.578,139.199 145,133.5C 145.893,130.084 145.393,126.917 143.5,124C 135.771,120.585 127.771,117.918 119.5,116C 109.591,110.605 107.091,102.772 112,92.5C 116.015,87.9464 120.848,84.9464 126.5,83.5 Z"/></g>
<g><path style="opacity:1" fill="#fcfcfc" d="M 66.5,91.5 C 79.986,89.8357 88.486,95.5024 92,108.5C 93.9979,118.974 91.4979,128.141 84.5,136C 69.1729,143.918 58.6729,139.751 53,123.5C 51.4029,114.646 52.7362,106.313 57,98.5C 59.7901,95.535 62.9567,93.2016 66.5,91.5 Z"/></g>
</svg>
