<?xml version="1.0" encoding="UTF-8"?>
<!DOCTYPE svg PUBLIC "-//W3C//DTD SVG 1.1//EN" "http://www.w3.org/Graphics/SVG/1.1/DTD/svg11.dtd">
<svg xmlns="http://www.w3.org/2000/svg" version="1.1" width="200px" height="200px" style="shape-rendering:geometricPrecision; text-rendering:geometricPrecision; image-rendering:optimizeQuality; fill-rule:evenodd; clip-rule:evenodd" xmlns:xlink="http://www.w3.org/1999/xlink">
<g><path style="opacity:0.998" fill="#fefefe" d="M 121.5,0.5 C 124.261,-0.0853493 125.927,0.914651 126.5,3.5C 123.669,9.82827 120.836,16.1616 118,22.5C 115.524,29.3999 113.857,36.3999 113,43.5C 114.726,42.4238 116.559,42.2571 118.5,43C 130.954,55.1411 145.287,57.8077 161.5,51C 172.125,47.403 182.791,43.903 193.5,40.5C 196.246,41.0963 197.08,42.7629 196,45.5C 174.67,53.7219 153.17,61.5553 131.5,69C 118.551,73.9701 107.218,81.3035 97.5,91C 112.467,104.398 115.634,120.231 107,138.5C 99.5467,150.954 89.7134,161.12 77.5,169C 54.3781,183.651 29.3781,193.484 2.5,198.5C 2.26057,196.533 2.59391,194.699 3.5,193C 28.0796,186.307 47.913,172.807 63,152.5C 70.7292,141.187 73.0625,128.854 70,115.5C 61.2733,108.119 54.94,99.1191 51,88.5C 50.009,80.3541 50.6756,72.3541 53,64.5C 56.2274,57.0436 60.2274,50.0436 65,43.5C 81.177,25.4658 100.01,11.1325 121.5,0.5 Z M 114.5,11.5 C 115.043,11.56 115.376,11.8933 115.5,12.5C 110.202,23.2284 107.035,34.5617 106,46.5C 95.5527,51.5665 86.5527,58.5665 79,67.5C 77.8926,64.7748 77.0592,61.9415 76.5,59C 79.3734,45.4587 85.7067,33.7921 95.5,24C 101.738,19.5773 108.072,15.4106 114.5,11.5 Z M 73.5,44.5 C 68.2258,59.2955 70.7258,72.6288 81,84.5C 87.3333,90.8333 93.6667,97.1667 100,103.5C 106.097,112.229 107.097,121.562 103,131.5C 99.5129,139.809 94.3462,146.809 87.5,152.5C 91.6259,140.121 89.7925,128.788 82,118.5C 75.3014,112.136 68.9681,105.469 63,98.5C 55.498,87.8131 54.498,76.4797 60,64.5C 63.2853,56.9032 67.7853,50.2365 73.5,44.5 Z M 113.5,49.5 C 118.159,51.3014 122.492,53.8014 126.5,57C 129.405,58.2862 132.405,59.2862 135.5,60C 125.919,64.1238 116.586,68.7905 107.5,74C 102.245,77.2511 97.5779,81.2511 93.5,86C 92.8333,86.6667 92.1667,86.6667 91.5,86C 89.0374,82.5354 86.2041,79.3688 83,76.5C 82.3333,75.1667 82.3333,73.8333 83,72.5C 91.6514,62.6634 101.818,54.9967 113.5,49.5 Z M 51.5,175.5 C 62.8951,165.714 71.0618,153.714 76,139.5C 77.0855,134.563 77.7521,129.563 78,124.5C 85.2343,134.699 85.2343,145.032 78,155.5C 71.0194,164.651 62.1861,171.317 51.5,175.5 Z"/></g>
</svg>
