<?xml version="1.0" encoding="UTF-8"?>
<!DOCTYPE svg PUBLIC "-//W3C//DTD SVG 1.1//EN" "http://www.w3.org/Graphics/SVG/1.1/DTD/svg11.dtd">
<svg xmlns="http://www.w3.org/2000/svg" version="1.1" width="200px" height="200px" style="shape-rendering:geometricPrecision; text-rendering:geometricPrecision; image-rendering:optimizeQuality; fill-rule:evenodd; clip-rule:evenodd" xmlns:xlink="http://www.w3.org/1999/xlink">
<g><path style="opacity:1" fill="#fefefe" d="M 66.5,11.5 C 84.4169,8.84571 100.584,12.8457 115,23.5C 109.955,45.6724 103.955,67.6724 97,89.5C 96.586,89.9574 96.086,90.2907 95.5,90.5C 79.7509,79.062 62.4176,75.562 43.5,80C 36.6053,81.9649 29.772,84.1315 23,86.5C 22.5,86.1667 22,85.8333 21.5,85.5C 27.678,63.788 34.0113,42.1213 40.5,20.5C 48.8356,16.278 57.5023,13.278 66.5,11.5 Z"/></g>
<g><path style="opacity:1" fill="#fefefe" d="M 199.5,35.5 C 199.5,36.8333 199.5,38.1667 199.5,39.5C 193.343,60.4392 187.01,81.4392 180.5,102.5C 156.482,114.941 132.815,114.441 109.5,101C 107.939,100.059 106.605,98.8924 105.5,97.5C 111.846,75.1158 118.346,52.7824 125,30.5C 138.719,41.1387 154.219,45.3054 171.5,43C 181.106,41.4073 190.439,38.9073 199.5,35.5 Z"/></g>
<g><path style="opacity:1" fill="#fefefe" d="M -0.5,165.5 C -0.5,164.167 -0.5,162.833 -0.5,161.5C 5.61939,141.708 11.4527,121.708 17,101.5C 17.2735,99.6711 18.1068,98.1711 19.5,97C 37.6154,88.5671 56.282,86.9005 75.5,92C 82.3269,94.5302 88.3269,98.1968 93.5,103C 87.5261,125.4 80.8595,147.567 73.5,169.5C 49.7376,153.606 25.0709,152.273 -0.5,165.5 Z"/></g>
<g><path style="opacity:1" fill="#fefefe" d="M 102.5,108.5 C 110.762,113.128 119.428,116.962 128.5,120C 145.206,122.328 161.206,119.828 176.5,112.5C 177.614,113.723 177.781,115.056 177,116.5C 171.181,137.961 164.681,159.128 157.5,180C 137.493,188.705 117.159,189.705 96.5,183C 92.2505,180.626 88.0838,178.126 84,175.5C 89.632,153.092 95.7987,130.759 102.5,108.5 Z"/></g>
</svg>
